<svg xmlns="http://www.w3.org/2000/svg" xmlns:xlink="http://www.w3.org/1999/xlink" xmlns:lucid="lucid" width="2140" height="402.5"><g transform="translate(-60 -247.5)" lucid:page-tab-id="w0SeDnUCb1GC"><path d="M0 0h3677.73v1322.83H0z" fill="#fff"/><path d="M220 300c-11.05 0-20 8.95-20 20v60c0 11.05 8.95 20 20 20h160c11.05 0 20-8.95 20-20v-60c0-11.05-8.95-20-20-20z" stroke="#333" stroke-width="3" fill="#fff"/><use xlink:href="#a" transform="matrix(1,0,0,1,208,308) translate(57.49382716049383 19.77777777777778)"/><use xlink:href="#b" transform="matrix(1,0,0,1,208,308) translate(-1.1481481481481381 46.44444444444444)"/><use xlink:href="#c" transform="matrix(1,0,0,1,208,308) translate(63.08024691358025 73.11111111111111)"/><path d="M120 350c0 11.05-8.95 20-20 20s-20-8.95-20-20 8.95-20 20-20 20 8.95 20 20z" stroke="#333" stroke-width="3"/><path d="M122.5 350H180" stroke="#333" stroke-width="2" fill="none"/><path d="M122.53 351h-1.14l.1-.93-.03-1.07h1.06z" fill="#333"/><path d="M195.26 350L181 354.64v-9.28z" stroke="#333" stroke-width="2" fill="#333"/><path d="M500 300c-11.05 0-20 8.95-20 20v60c0 11.05 8.95 20 20 20h160c11.05 0 20-8.95 20-20v-60c0-11.05-8.95-20-20-20z" stroke="#333" stroke-width="3" fill="#fff"/><use xlink:href="#d" transform="matrix(1,0,0,1,488,308) translate(39.561728395061735 19.77777777777778)"/><use xlink:href="#e" transform="matrix(1,0,0,1,488,308) translate(119.74691358024691 19.77777777777778)"/><use xlink:href="#f" transform="matrix(1,0,0,1,488,308) translate(34.5 46.44444444444444)"/><use xlink:href="#g" transform="matrix(1,0,0,1,488,308) translate(114.99382716049382 46.44444444444444)"/><use xlink:href="#h" transform="matrix(1,0,0,1,488,308) translate(132.27777777777777 46.44444444444444)"/><use xlink:href="#i" transform="matrix(1,0,0,1,488,308) translate(13.080246913580254 73.11111111111111)"/><use xlink:href="#j" transform="matrix(1,0,0,1,488,308) translate(88.32716049382717 73.11111111111111)"/><use xlink:href="#k" transform="matrix(1,0,0,1,488,308) translate(106.84567901234568 73.11111111111111)"/><use xlink:href="#l" transform="matrix(1,0,0,1,488,308) translate(130.24074074074076 73.11111111111111)"/><path d="M402.5 350H460" stroke="#333" stroke-width="2" fill="none"/><path d="M402.53 351h-1.03v-2h1.03z" fill="#333"/><path d="M475.26 350L461 354.64v-9.28z" stroke="#333" stroke-width="2" fill="#333"/><path d="M760 276c0-3.3 2.7-6 6-6h8c3.3 0 6 2.7 6 6v148c0 3.3-2.7 6-6 6h-8c-3.3 0-6-2.7-6-6z" stroke="#333" stroke-width="3"/><path d="M682.5 350H740" stroke="#333" stroke-width="2" fill="none"/><path d="M682.53 351h-1.03v-2h1.03z" fill="#333"/><path d="M755.26 350L741 354.64v-9.28z" stroke="#333" stroke-width="2" fill="#333"/><path d="M581.33 297.5v-33c0-3.3-2.68-6-6-6H306c-3.3 0-6 2.7-6 6V280" stroke="#333" stroke-width="2" fill="none"/><path d="M582.33 298.5h-2v-1.03h2z" fill="#333"/><path d="M300 295.26L295.36 281h9.28z" stroke="#333" stroke-width="2" fill="#333"/><path d="M880 400c-11.05 0-20 8.95-20 20v60c0 11.05 8.95 20 20 20h180c11.05 0 20-8.95 20-20v-60c0-11.05-8.95-20-20-20z" stroke="#333" stroke-width="3" fill="#fff"/><use xlink:href="#m" transform="matrix(1,0,0,1,868,408) translate(4.475308641975303 19.77777777777778)"/><use xlink:href="#n" transform="matrix(1,0,0,1,868,408) translate(92.06790123456788 19.77777777777778)"/><use xlink:href="#o" transform="matrix(1,0,0,1,868,408) translate(115.46296296296295 19.77777777777778)"/><use xlink:href="#p" transform="matrix(1,0,0,1,868,408) translate(175.83333333333331 19.77777777777778)"/><use xlink:href="#q" transform="matrix(1,0,0,1,868,408) translate(6.913580246913568 46.44444444444444)"/><use xlink:href="#g" transform="matrix(1,0,0,1,868,408) translate(67.40740740740739 46.44444444444444)"/><use xlink:href="#r" transform="matrix(1,0,0,1,868,408) translate(84.69135802469134 46.44444444444444)"/><use xlink:href="#s" transform="matrix(1,0,0,1,868,408) translate(108.0864197530864 46.44444444444444)"/><use xlink:href="#t" transform="matrix(1,0,0,1,868,408) translate(9.413580246913583 73.11111111111111)"/><use xlink:href="#u" transform="matrix(1,0,0,1,868,408) translate(40.27777777777778 73.11111111111111)"/><path d="M782.5 350H814c3.3 0 6 2.7 6 6v88c0 3.3 2.7 6 6 6h14" stroke="#333" stroke-width="2" fill="none"/><path d="M782.53 351h-1.03v-2h1.03z" fill="#333"/><path d="M855.26 450L841 454.64v-9.28z" stroke="#333" stroke-width="2" fill="#333"/><path d="M1180 400c-11.05 0-20 8.95-20 20v60c0 11.05 8.95 20 20 20h180c11.05 0 20-8.95 20-20v-60c0-11.05-8.95-20-20-20z" stroke="#333" stroke-width="3" fill="#fff"/><use xlink:href="#m" transform="matrix(1,0,0,1,1168,408) translate(4.475308641975303 19.77777777777778)"/><use xlink:href="#n" transform="matrix(1,0,0,1,1168,408) translate(92.06790123456788 19.77777777777778)"/><use xlink:href="#o" transform="matrix(1,0,0,1,1168,408) translate(115.46296296296295 19.77777777777778)"/><use xlink:href="#p" transform="matrix(1,0,0,1,1168,408) translate(175.83333333333331 19.77777777777778)"/><use xlink:href="#q" transform="matrix(1,0,0,1,1168,408) translate(6.913580246913568 46.44444444444444)"/><use xlink:href="#g" transform="matrix(1,0,0,1,1168,408) translate(67.40740740740739 46.44444444444444)"/><use xlink:href="#r" transform="matrix(1,0,0,1,1168,408) translate(84.69135802469134 46.44444444444444)"/><use xlink:href="#s" transform="matrix(1,0,0,1,1168,408) translate(108.0864197530864 46.44444444444444)"/><use xlink:href="#t" transform="matrix(1,0,0,1,1168,408) translate(9.413580246913583 73.11111111111111)"/><use xlink:href="#u" transform="matrix(1,0,0,1,1168,408) translate(40.27777777777778 73.11111111111111)"/><path d="M1460 376c0-3.3 2.7-6 6-6h8c3.3 0 6 2.7 6 6v148c0 3.3-2.7 6-6 6h-8c-3.3 0-6-2.7-6-6z" stroke="#333" stroke-width="3"/><path d="M1082.5 450h57.5" stroke="#333" stroke-width="2" fill="none"/><path d="M1082.53 451h-1.03v-2h1.03z" fill="#333"/><path d="M1155.26 450l-14.26 4.64v-9.28z" stroke="#333" stroke-width="2" fill="#333"/><path d="M1580 280c-11.05 0-20 8.95-20 20v60c0 11.05 8.95 20 20 20h180c11.05 0 20-8.95 20-20v-60c0-11.05-8.95-20-20-20z" stroke="#333" stroke-width="3" fill="#fff"/><use xlink:href="#v" transform="matrix(1,0,0,1,1568,288) translate(0.8024691358024825 46.44444444444444)"/><use xlink:href="#w" transform="matrix(1,0,0,1,1568,288) translate(98.14814814814815 46.44444444444444)"/><use xlink:href="#x" transform="matrix(1,0,0,1,1568,288) translate(129.01234567901236 46.44444444444444)"/><path d="M1580 400c-11.05 0-20 8.95-20 20v60c0 11.05 8.95 20 20 20h180c11.05 0 20-8.95 20-20v-60c0-11.05-8.95-20-20-20z" stroke="#333" stroke-width="3" fill="#fff"/><use xlink:href="#v" transform="matrix(1,0,0,1,1568,408) translate(0.8024691358024825 46.44444444444444)"/><use xlink:href="#w" transform="matrix(1,0,0,1,1568,408) translate(98.14814814814815 46.44444444444444)"/><use xlink:href="#x" transform="matrix(1,0,0,1,1568,408) translate(129.01234567901236 46.44444444444444)"/><path d="M1580 530c-11.05 0-20 8.95-20 20v60c0 11.05 8.95 20 20 20h180c11.05 0 20-8.95 20-20v-60c0-11.05-8.95-20-20-20z" stroke="#333" stroke-width="3" fill="#fff"/><g><use xlink:href="#v" transform="matrix(1,0,0,1,1568,538) translate(0.8024691358024825 46.44444444444444)"/><use xlink:href="#w" transform="matrix(1,0,0,1,1568,538) translate(98.14814814814815 46.44444444444444)"/><use xlink:href="#x" transform="matrix(1,0,0,1,1568,538) translate(129.01234567901236 46.44444444444444)"/></g><path d="M1481 410h32.25c3.3 0 6-2.7 6-6v-66.5c0-3.3 2.7-6 6-6H1540" stroke="#333" stroke-width="2" fill="none"/><path fill="#333"/><path d="M1555.26 331.5l-14.26 4.64v-9.28z" stroke="#333" stroke-width="2" fill="#333"/><path d="M1482.5 450h57.5" stroke="#333" stroke-width="2" fill="none"/><path d="M1482.53 451h-1.03v-2h1.03z" fill="#333"/><path d="M1555.26 450l-14.26 4.64v-9.28z" stroke="#333" stroke-width="2" fill="#333"/><path d="M1481 490h32.25c3.3 0 6 2.7 6 6v78c0 3.3 2.7 6 6 6H1540" stroke="#333" stroke-width="2" fill="none"/><path fill="#333"/><path d="M1555.26 580l-14.26 4.64v-9.28z" stroke="#333" stroke-width="2" fill="#333"/><path d="M1382.5 450h57.5" stroke="#333" stroke-width="2" fill="none"/><path d="M1382.53 451h-1.03v-2h1.03z" fill="#333"/><path d="M1455.26 450l-14.26 4.64v-9.28z" stroke="#333" stroke-width="2" fill="#333"/><path d="M1860 376c0-3.3 2.7-6 6-6h8c3.3 0 6 2.7 6 6v148c0 3.3-2.7 6-6 6h-8c-3.3 0-6-2.7-6-6z" stroke="#333" stroke-width="3"/><path d="M1782.5 330h31.5c3.3 0 6 2.7 6 6v65c0 3.3 2.7 6 6 6h14" stroke="#333" stroke-width="2" fill="none"/><path d="M1782.53 331h-1.03v-2h1.03z" fill="#333"/><path d="M1855.26 407l-14.26 4.64v-9.28z" stroke="#333" stroke-width="2" fill="#333"/><path d="M1782.5 450h57.5" stroke="#333" stroke-width="2" fill="none"/><path d="M1782.53 451h-1.03v-2h1.03z" fill="#333"/><path d="M1855.26 450l-14.26 4.64v-9.28z" stroke="#333" stroke-width="2" fill="#333"/><path d="M1782.5 580h32.25c3.3 0 6-2.7 6-6v-78c0-3.3 2.7-6 6-6h14.75" stroke="#333" stroke-width="2" fill="none"/><path d="M1782.53 581h-1.03v-2h1.03z" fill="#333"/><path d="M1856.76 490l-14.26 4.64v-9.28z" stroke="#333" stroke-width="2" fill="#333"/><path d="M1980 400c-11.05 0-20 8.95-20 20v60c0 11.05 8.95 20 20 20h180c11.05 0 20-8.95 20-20v-60c0-11.05-8.95-20-20-20z" stroke="#333" stroke-width="3" fill="#fff"/><g><use xlink:href="#y" transform="matrix(1,0,0,1,1968,408) translate(2.65432098765433 19.77777777777778)"/><use xlink:href="#n" transform="matrix(1,0,0,1,1968,408) translate(65.61728395061729 19.77777777777778)"/><use xlink:href="#z" transform="matrix(1,0,0,1,1968,408) translate(89.01234567901236 19.77777777777778)"/><use xlink:href="#A" transform="matrix(1,0,0,1,1968,408) translate(162.96296296296296 19.77777777777778)"/><use xlink:href="#j" transform="matrix(1,0,0,1,1968,408) translate(3.2407407407407334 46.44444444444444)"/><use xlink:href="#k" transform="matrix(1,0,0,1,1968,408) translate(21.759259259259252 46.44444444444444)"/><use xlink:href="#B" transform="matrix(1,0,0,1,1968,408) translate(45.154320987654316 46.44444444444444)"/><use xlink:href="#C" transform="matrix(1,0,0,1,1968,408) translate(92.00617283950618 46.44444444444444)"/><use xlink:href="#D" transform="matrix(1,0,0,1,1968,408) translate(122.87037037037038 46.44444444444444)"/><use xlink:href="#E" transform="matrix(1,0,0,1,1968,408) translate(77.25308641975309 73.11111111111111)"/></g><path d="M1882.5 450h57.5" stroke="#333" stroke-width="2" fill="none"/><path d="M1882.53 451h-1.03v-2h1.03z" fill="#333"/><path d="M1955.26 450l-14.26 4.64v-9.28z" stroke="#333" stroke-width="2" fill="#333"/><defs><path fill="#333" d="M233-177c-1 41-23 64-60 70L243 0h-38l-65-103H63V0H30v-248c88 3 205-21 203 71zM63-129c60-2 137 13 137-47 0-61-80-42-137-45v92" id="F"/><path fill="#333" d="M100-194c63 0 86 42 84 106H49c0 40 14 67 53 68 26 1 43-12 49-29l28 8c-11 28-37 45-77 45C44 4 14-33 15-96c1-61 26-98 85-98zm52 81c6-60-76-77-97-28-3 7-6 17-6 28h103" id="G"/><path fill="#333" d="M96-169c-40 0-48 33-48 73s9 75 48 75c24 0 41-14 43-38l32 2c-6 37-31 61-74 61-59 0-76-41-82-99-10-93 101-131 147-64 4 7 5 14 7 22l-32 3c-4-21-16-35-41-35" id="H"/><path fill="#333" d="M24-231v-30h32v30H24zM24 0v-190h32V0H24" id="I"/><path fill="#333" d="M115-194c53 0 69 39 70 98 0 66-23 100-70 100C84 3 66-7 56-30L54 0H23l1-261h32v101c10-23 28-34 59-34zm-8 174c40 0 45-34 45-75 0-40-5-75-45-74-42 0-51 32-51 76 0 43 10 73 51 73" id="J"/><g id="a"><use transform="matrix(0.06172839506172839,0,0,0.06172839506172839,0,0)" xlink:href="#F"/><use transform="matrix(0.06172839506172839,0,0,0.06172839506172839,15.987654320987653,0)" xlink:href="#G"/><use transform="matrix(0.06172839506172839,0,0,0.06172839506172839,28.333333333333332,0)" xlink:href="#H"/><use transform="matrix(0.06172839506172839,0,0,0.06172839506172839,39.44444444444444,0)" xlink:href="#I"/><use transform="matrix(0.06172839506172839,0,0,0.06172839506172839,44.32098765432099,0)" xlink:href="#J"/><use transform="matrix(0.06172839506172839,0,0,0.06172839506172839,56.666666666666664,0)" xlink:href="#G"/></g><path fill="#333" d="M100-194c62-1 85 37 85 99 1 63-27 99-86 99S16-35 15-95c0-66 28-99 85-99zM99-20c44 1 53-31 53-75 0-43-8-75-51-75s-53 32-53 75 10 74 51 75" id="K"/><path fill="#333" d="M117-194c89-4 53 116 60 194h-32v-121c0-31-8-49-39-48C34-167 62-67 57 0H25l-1-190h30c1 10-1 24 2 32 11-22 29-35 61-36" id="L"/><path fill="#333" d="M135-143c-3-34-86-38-87 0 15 53 115 12 119 90S17 21 10-45l28-5c4 36 97 45 98 0-10-56-113-15-118-90-4-57 82-63 122-42 12 7 21 19 24 35" id="M"/><path fill="#333" d="M84 4C-5 8 30-112 23-190h32v120c0 31 7 50 39 49 72-2 45-101 50-169h31l1 190h-30c-1-10 1-25-2-33-11 22-28 36-60 37" id="N"/><path fill="#333" d="M24 0v-261h32V0H24" id="O"/><path fill="#333" d="M59-47c-2 24 18 29 38 22v24C64 9 27 4 27-40v-127H5v-23h24l9-43h21v43h35v23H59v120" id="P"/><path fill="#333" d="M141-36C126-15 110 5 73 4 37 3 15-17 15-53c-1-64 63-63 125-63 3-35-9-54-41-54-24 1-41 7-42 31l-33-3c5-37 33-52 76-52 45 0 72 20 72 64v82c-1 20 7 32 28 27v20c-31 9-61-2-59-35zM48-53c0 20 12 33 32 33 41-3 63-29 60-74-43 2-92-5-92 41" id="Q"/><path fill="#333" d="M0 4l72-265h28L28 4H0" id="R"/><path fill="#333" d="M114-163C36-179 61-72 57 0H25l-1-190h30c1 12-1 29 2 39 6-27 23-49 58-41v29" id="S"/><path fill="#333" d="M115-194c55 1 70 41 70 98S169 2 115 4C84 4 66-9 55-30l1 105H24l-1-265h31l2 30c10-21 28-34 59-34zm-8 174c40 0 45-34 45-75s-6-73-45-74c-42 0-51 32-51 76 0 43 10 73 51 73" id="T"/><g id="b"><use transform="matrix(0.06172839506172839,0,0,0.06172839506172839,0,0)" xlink:href="#H"/><use transform="matrix(0.06172839506172839,0,0,0.06172839506172839,11.11111111111111,0)" xlink:href="#K"/><use transform="matrix(0.06172839506172839,0,0,0.06172839506172839,23.45679012345679,0)" xlink:href="#L"/><use transform="matrix(0.06172839506172839,0,0,0.06172839506172839,35.80246913580247,0)" xlink:href="#M"/><use transform="matrix(0.06172839506172839,0,0,0.06172839506172839,46.91358024691358,0)" xlink:href="#N"/><use transform="matrix(0.06172839506172839,0,0,0.06172839506172839,59.25925925925926,0)" xlink:href="#O"/><use transform="matrix(0.06172839506172839,0,0,0.06172839506172839,64.1358024691358,0)" xlink:href="#P"/><use transform="matrix(0.06172839506172839,0,0,0.06172839506172839,70.30864197530863,0)" xlink:href="#Q"/><use transform="matrix(0.06172839506172839,0,0,0.06172839506172839,82.65432098765432,0)" xlink:href="#R"/><use transform="matrix(0.06172839506172839,0,0,0.06172839506172839,88.82716049382715,0)" xlink:href="#S"/><use transform="matrix(0.06172839506172839,0,0,0.06172839506172839,96.17283950617283,0)" xlink:href="#G"/><use transform="matrix(0.06172839506172839,0,0,0.06172839506172839,108.51851851851852,0)" xlink:href="#M"/><use transform="matrix(0.06172839506172839,0,0,0.06172839506172839,119.62962962962963,0)" xlink:href="#T"/><use transform="matrix(0.06172839506172839,0,0,0.06172839506172839,131.97530864197532,0)" xlink:href="#N"/><use transform="matrix(0.06172839506172839,0,0,0.06172839506172839,144.320987654321,0)" xlink:href="#G"/><use transform="matrix(0.06172839506172839,0,0,0.06172839506172839,156.66666666666666,0)" xlink:href="#M"/><use transform="matrix(0.06172839506172839,0,0,0.06172839506172839,167.77777777777777,0)" xlink:href="#P"/><use transform="matrix(0.06172839506172839,0,0,0.06172839506172839,173.9506172839506,0)" xlink:href="#Q"/></g><path fill="#333" d="M197 0v-115H63V0H30v-248h33v105h134v-105h34V0h-34" id="U"/><path fill="#333" d="M127-220V0H93v-220H8v-28h204v28h-85" id="V"/><path fill="#333" d="M30-248c87 1 191-15 191 75 0 78-77 80-158 76V0H30v-248zm33 125c57 0 124 11 124-50 0-59-68-47-124-48v98" id="W"/><g id="c"><use transform="matrix(0.06172839506172839,0,0,0.06172839506172839,0,0)" xlink:href="#U"/><use transform="matrix(0.06172839506172839,0,0,0.06172839506172839,15.987654320987653,0)" xlink:href="#V"/><use transform="matrix(0.06172839506172839,0,0,0.06172839506172839,29.50617283950617,0)" xlink:href="#V"/><use transform="matrix(0.06172839506172839,0,0,0.06172839506172839,43.02469135802469,0)" xlink:href="#W"/></g><path fill="#333" d="M143 4C61 4 22-44 18-125c-5-107 100-154 193-111 17 8 29 25 37 43l-32 9c-13-25-37-40-76-40-61 0-88 39-88 99 0 61 29 100 91 101 35 0 62-11 79-27v-45h-74v-28h105v86C228-13 192 4 143 4" id="X"/><g id="d"><use transform="matrix(0.06172839506172839,0,0,0.06172839506172839,0,0)" xlink:href="#X"/><use transform="matrix(0.06172839506172839,0,0,0.06172839506172839,17.28395061728395,0)" xlink:href="#G"/><use transform="matrix(0.06172839506172839,0,0,0.06172839506172839,29.629629629629626,0)" xlink:href="#L"/><use transform="matrix(0.06172839506172839,0,0,0.06172839506172839,41.9753086419753,0)" xlink:href="#G"/><use transform="matrix(0.06172839506172839,0,0,0.06172839506172839,54.32098765432098,0)" xlink:href="#S"/><use transform="matrix(0.06172839506172839,0,0,0.06172839506172839,61.66666666666666,0)" xlink:href="#Q"/></g><g id="e"><use transform="matrix(0.06172839506172839,0,0,0.06172839506172839,0,0)" xlink:href="#N"/><use transform="matrix(0.06172839506172839,0,0,0.06172839506172839,12.345679012345679,0)" xlink:href="#L"/></g><path fill="#333" d="M24-231v-30h32v30H24zM-9 49c24 4 33-6 33-30v-209h32V24c2 40-23 58-65 49V49" id="Y"/><g id="f"><use transform="matrix(0.06172839506172839,0,0,0.06172839506172839,0,0)" xlink:href="#V"/><use transform="matrix(0.06172839506172839,0,0,0.06172839506172839,12.716049382716047,0)" xlink:href="#S"/><use transform="matrix(0.06172839506172839,0,0,0.06172839506172839,20.061728395061728,0)" xlink:href="#Q"/><use transform="matrix(0.06172839506172839,0,0,0.06172839506172839,32.407407407407405,0)" xlink:href="#J"/><use transform="matrix(0.06172839506172839,0,0,0.06172839506172839,44.75308641975308,0)" xlink:href="#Q"/><use transform="matrix(0.06172839506172839,0,0,0.06172839506172839,57.09876543209876,0)" xlink:href="#Y"/><use transform="matrix(0.06172839506172839,0,0,0.06172839506172839,61.9753086419753,0)" xlink:href="#K"/></g><path fill="#333" d="M179-190L93 31C79 59 56 82 12 73V49c39 6 53-20 64-50L1-190h34L92-34l54-156h33" id="Z"/><use transform="matrix(0.06172839506172839,0,0,0.06172839506172839,0,0)" xlink:href="#Z" id="g"/><g id="h"><use transform="matrix(0.06172839506172839,0,0,0.06172839506172839,0,0)" xlink:href="#O"/><use transform="matrix(0.06172839506172839,0,0,0.06172839506172839,4.876543209876543,0)" xlink:href="#K"/></g><path fill="#333" d="M177-190C167-65 218 103 67 71c-23-6-38-20-44-43l32-5c15 47 100 32 89-28v-30C133-14 115 1 83 1 29 1 15-40 15-95c0-56 16-97 71-98 29-1 48 16 59 35 1-10 0-23 2-32h30zM94-22c36 0 50-32 50-73 0-42-14-75-50-75-39 0-46 34-46 75s6 73 46 73" id="aa"/><g id="i"><use transform="matrix(0.06172839506172839,0,0,0.06172839506172839,0,0)" xlink:href="#Q"/><use transform="matrix(0.06172839506172839,0,0,0.06172839506172839,12.345679012345679,0)" xlink:href="#aa"/><use transform="matrix(0.06172839506172839,0,0,0.06172839506172839,24.691358024691358,0)" xlink:href="#S"/><use transform="matrix(0.06172839506172839,0,0,0.06172839506172839,32.03703703703704,0)" xlink:href="#G"/><use transform="matrix(0.06172839506172839,0,0,0.06172839506172839,44.382716049382715,0)" xlink:href="#aa"/><use transform="matrix(0.06172839506172839,0,0,0.06172839506172839,56.72839506172839,0)" xlink:href="#Q"/></g><use transform="matrix(0.06172839506172839,0,0,0.06172839506172839,0,0)" xlink:href="#Q" id="j"/><g id="k"><use transform="matrix(0.06172839506172839,0,0,0.06172839506172839,0,0)" xlink:href="#O"/><use transform="matrix(0.06172839506172839,0,0,0.06172839506172839,4.876543209876543,0)" xlink:href="#Q"/></g><g id="l"><use transform="matrix(0.06172839506172839,0,0,0.06172839506172839,0,0)" xlink:href="#H"/><use transform="matrix(0.06172839506172839,0,0,0.06172839506172839,11.11111111111111,0)" xlink:href="#K"/><use transform="matrix(0.06172839506172839,0,0,0.06172839506172839,23.45679012345679,0)" xlink:href="#O"/><use transform="matrix(0.06172839506172839,0,0,0.06172839506172839,28.333333333333336,0)" xlink:href="#Q"/></g><g id="m"><use transform="matrix(0.06172839506172839,0,0,0.06172839506172839,0,0)" xlink:href="#W"/><use transform="matrix(0.06172839506172839,0,0,0.06172839506172839,14.814814814814813,0)" xlink:href="#S"/><use transform="matrix(0.06172839506172839,0,0,0.06172839506172839,22.160493827160494,0)" xlink:href="#K"/><use transform="matrix(0.06172839506172839,0,0,0.06172839506172839,34.50617283950617,0)" xlink:href="#H"/><use transform="matrix(0.06172839506172839,0,0,0.06172839506172839,45.61728395061728,0)" xlink:href="#G"/><use transform="matrix(0.06172839506172839,0,0,0.06172839506172839,57.962962962962955,0)" xlink:href="#M"/><use transform="matrix(0.06172839506172839,0,0,0.06172839506172839,69.07407407407406,0)" xlink:href="#Q"/></g><g id="n"><use transform="matrix(0.06172839506172839,0,0,0.06172839506172839,0,0)" xlink:href="#G"/><use transform="matrix(0.06172839506172839,0,0,0.06172839506172839,12.345679012345679,0)" xlink:href="#O"/></g><g id="o"><use transform="matrix(0.06172839506172839,0,0,0.06172839506172839,0,0)" xlink:href="#M"/><use transform="matrix(0.06172839506172839,0,0,0.06172839506172839,11.11111111111111,0)" xlink:href="#P"/><use transform="matrix(0.06172839506172839,0,0,0.06172839506172839,17.28395061728395,0)" xlink:href="#S"/><use transform="matrix(0.06172839506172839,0,0,0.06172839506172839,24.629629629629626,0)" xlink:href="#I"/><use transform="matrix(0.06172839506172839,0,0,0.06172839506172839,29.50617283950617,0)" xlink:href="#L"/><use transform="matrix(0.06172839506172839,0,0,0.06172839506172839,41.85185185185185,0)" xlink:href="#aa"/></g><path fill="#333" d="M85-194c31 0 48 13 60 33l-1-100h32l1 261h-30c-2-10 0-23-3-31C134-8 116 4 85 4 32 4 16-35 15-94c0-66 23-100 70-100zm9 24c-40 0-46 34-46 75 0 40 6 74 45 74 42 0 51-32 51-76 0-42-9-74-50-73" id="ab"/><g id="p"><use transform="matrix(0.06172839506172839,0,0,0.06172839506172839,0,0)" xlink:href="#ab"/><use transform="matrix(0.06172839506172839,0,0,0.06172839506172839,12.345679012345679,0)" xlink:href="#G"/></g><g id="q"><use transform="matrix(0.06172839506172839,0,0,0.06172839506172839,0,0)" xlink:href="#ab"/><use transform="matrix(0.06172839506172839,0,0,0.06172839506172839,12.345679012345679,0)" xlink:href="#Q"/><use transform="matrix(0.06172839506172839,0,0,0.06172839506172839,24.691358024691358,0)" xlink:href="#P"/><use transform="matrix(0.06172839506172839,0,0,0.06172839506172839,30.864197530864196,0)" xlink:href="#K"/><use transform="matrix(0.06172839506172839,0,0,0.06172839506172839,43.20987654320987,0)" xlink:href="#M"/></g><g id="r"><use transform="matrix(0.06172839506172839,0,0,0.06172839506172839,0,0)" xlink:href="#O"/><use transform="matrix(0.06172839506172839,0,0,0.06172839506172839,4.876543209876543,0)" xlink:href="#K"/></g><path fill="#333" d="M108 0H70L1-190h34L89-25l56-165h34" id="ac"/><g id="s"><use transform="matrix(0.06172839506172839,0,0,0.06172839506172839,0,0)" xlink:href="#H"/><use transform="matrix(0.06172839506172839,0,0,0.06172839506172839,11.11111111111111,0)" xlink:href="#K"/><use transform="matrix(0.06172839506172839,0,0,0.06172839506172839,23.45679012345679,0)" xlink:href="#L"/><use transform="matrix(0.06172839506172839,0,0,0.06172839506172839,35.80246913580247,0)" xlink:href="#ac"/><use transform="matrix(0.06172839506172839,0,0,0.06172839506172839,46.91358024691358,0)" xlink:href="#I"/><use transform="matrix(0.06172839506172839,0,0,0.06172839506172839,51.79012345679013,0)" xlink:href="#G"/><use transform="matrix(0.06172839506172839,0,0,0.06172839506172839,64.13580246913581,0)" xlink:href="#S"/><use transform="matrix(0.06172839506172839,0,0,0.06172839506172839,71.4814814814815,0)" xlink:href="#P"/><use transform="matrix(0.06172839506172839,0,0,0.06172839506172839,77.65432098765433,0)" xlink:href="#G"/></g><g id="t"><use transform="matrix(0.06172839506172839,0,0,0.06172839506172839,0,0)" xlink:href="#G"/><use transform="matrix(0.06172839506172839,0,0,0.06172839506172839,12.345679012345679,0)" xlink:href="#L"/></g><path fill="#333" d="M63-220v92h138v28H63V0H30v-248h175v28H63" id="ad"/><path fill="#333" d="M9 0v-24l116-142H16v-24h144v24L44-24h123V0H9" id="ae"/><g id="u"><use transform="matrix(0.06172839506172839,0,0,0.06172839506172839,0,0)" xlink:href="#ad"/><use transform="matrix(0.06172839506172839,0,0,0.06172839506172839,13.518518518518517,0)" xlink:href="#Q"/><use transform="matrix(0.06172839506172839,0,0,0.06172839506172839,25.864197530864196,0)" xlink:href="#H"/><use transform="matrix(0.06172839506172839,0,0,0.06172839506172839,36.9753086419753,0)" xlink:href="#P"/><use transform="matrix(0.06172839506172839,0,0,0.06172839506172839,43.148148148148145,0)" xlink:href="#K"/><use transform="matrix(0.06172839506172839,0,0,0.06172839506172839,55.49382716049382,0)" xlink:href="#S"/><use transform="matrix(0.06172839506172839,0,0,0.06172839506172839,62.8395061728395,0)" xlink:href="#I"/><use transform="matrix(0.06172839506172839,0,0,0.06172839506172839,67.71604938271604,0)" xlink:href="#ae"/><use transform="matrix(0.06172839506172839,0,0,0.06172839506172839,78.82716049382715,0)" xlink:href="#Q"/><use transform="matrix(0.06172839506172839,0,0,0.06172839506172839,91.17283950617283,0)" xlink:href="#H"/><use transform="matrix(0.06172839506172839,0,0,0.06172839506172839,102.28395061728395,0)" xlink:href="#I"/><use transform="matrix(0.06172839506172839,0,0,0.06172839506172839,107.1604938271605,0)" xlink:href="#K"/><use transform="matrix(0.06172839506172839,0,0,0.06172839506172839,119.50617283950618,0)" xlink:href="#L"/><use transform="matrix(0.06172839506172839,0,0,0.06172839506172839,131.85185185185185,0)" xlink:href="#G"/><use transform="matrix(0.06172839506172839,0,0,0.06172839506172839,144.19753086419752,0)" xlink:href="#M"/></g><g id="v"><use transform="matrix(0.06172839506172839,0,0,0.06172839506172839,0,0)" xlink:href="#ad"/><use transform="matrix(0.06172839506172839,0,0,0.06172839506172839,13.518518518518517,0)" xlink:href="#Q"/><use transform="matrix(0.06172839506172839,0,0,0.06172839506172839,25.864197530864196,0)" xlink:href="#H"/><use transform="matrix(0.06172839506172839,0,0,0.06172839506172839,36.9753086419753,0)" xlink:href="#P"/><use transform="matrix(0.06172839506172839,0,0,0.06172839506172839,43.148148148148145,0)" xlink:href="#K"/><use transform="matrix(0.06172839506172839,0,0,0.06172839506172839,55.49382716049382,0)" xlink:href="#S"/><use transform="matrix(0.06172839506172839,0,0,0.06172839506172839,62.8395061728395,0)" xlink:href="#I"/><use transform="matrix(0.06172839506172839,0,0,0.06172839506172839,67.71604938271604,0)" xlink:href="#ae"/><use transform="matrix(0.06172839506172839,0,0,0.06172839506172839,78.82716049382715,0)" xlink:href="#Q"/></g><g id="w"><use transform="matrix(0.06172839506172839,0,0,0.06172839506172839,0,0)" xlink:href="#N"/><use transform="matrix(0.06172839506172839,0,0,0.06172839506172839,12.345679012345679,0)" xlink:href="#L"/></g><path fill="#333" d="M85 4C-4 8 31-112 24-190h32v120c0 31 7 50 39 49 72-2 45-101 50-169h31l1 190h-30c-1-10 1-25-2-33-11 22-28 36-60 37zM73-211c8-23 27-35 38-54h36v5l-58 49H73" id="af"/><path fill="#333" d="M210-169c-67 3-38 105-44 169h-31v-121c0-29-5-50-35-48C34-165 62-65 56 0H25l-1-190h30c1 10-1 24 2 32 10-44 99-50 107 0 11-21 27-35 58-36 85-2 47 119 55 194h-31v-121c0-29-5-49-35-48" id="ag"/><g id="x"><use transform="matrix(0.06172839506172839,0,0,0.06172839506172839,0,0)" xlink:href="#L"/><use transform="matrix(0.06172839506172839,0,0,0.06172839506172839,12.345679012345679,0)" xlink:href="#af"/><use transform="matrix(0.06172839506172839,0,0,0.06172839506172839,24.691358024691358,0)" xlink:href="#ag"/><use transform="matrix(0.06172839506172839,0,0,0.06172839506172839,43.148148148148145,0)" xlink:href="#G"/><use transform="matrix(0.06172839506172839,0,0,0.06172839506172839,55.49382716049382,0)" xlink:href="#S"/><use transform="matrix(0.06172839506172839,0,0,0.06172839506172839,62.8395061728395,0)" xlink:href="#K"/></g><path fill="#333" d="M30 0v-248h187v28H63v79h144v27H63v87h162V0H30" id="ah"/><path fill="#333" d="M34 0v-190h32V0H34zM24-211c8-23 27-35 38-54h36v5l-58 49H24" id="ai"/><g id="y"><use transform="matrix(0.06172839506172839,0,0,0.06172839506172839,0,0)" xlink:href="#ah"/><use transform="matrix(0.06172839506172839,0,0,0.06172839506172839,14.814814814814813,0)" xlink:href="#L"/><use transform="matrix(0.06172839506172839,0,0,0.06172839506172839,27.160493827160494,0)" xlink:href="#ac"/><use transform="matrix(0.06172839506172839,0,0,0.06172839506172839,38.27160493827161,0)" xlink:href="#ai"/><use transform="matrix(0.06172839506172839,0,0,0.06172839506172839,44.44444444444445,0)" xlink:href="#Q"/></g><g id="z"><use transform="matrix(0.06172839506172839,0,0,0.06172839506172839,0,0)" xlink:href="#P"/><use transform="matrix(0.06172839506172839,0,0,0.06172839506172839,6.172839506172839,0)" xlink:href="#S"/><use transform="matrix(0.06172839506172839,0,0,0.06172839506172839,13.518518518518519,0)" xlink:href="#Q"/><use transform="matrix(0.06172839506172839,0,0,0.06172839506172839,25.864197530864196,0)" xlink:href="#J"/><use transform="matrix(0.06172839506172839,0,0,0.06172839506172839,38.20987654320987,0)" xlink:href="#Q"/><use transform="matrix(0.06172839506172839,0,0,0.06172839506172839,50.55555555555555,0)" xlink:href="#Y"/><use transform="matrix(0.06172839506172839,0,0,0.06172839506172839,55.432098765432094,0)" xlink:href="#K"/></g><g id="A"><use transform="matrix(0.06172839506172839,0,0,0.06172839506172839,0,0)" xlink:href="#O"/><use transform="matrix(0.06172839506172839,0,0,0.06172839506172839,4.876543209876543,0)" xlink:href="#I"/><use transform="matrix(0.06172839506172839,0,0,0.06172839506172839,9.753086419753085,0)" xlink:href="#M"/><use transform="matrix(0.06172839506172839,0,0,0.06172839506172839,20.864197530864196,0)" xlink:href="#P"/><use transform="matrix(0.06172839506172839,0,0,0.06172839506172839,27.037037037037035,0)" xlink:href="#K"/></g><g id="B"><use transform="matrix(0.06172839506172839,0,0,0.06172839506172839,0,0)" xlink:href="#H"/><use transform="matrix(0.06172839506172839,0,0,0.06172839506172839,11.11111111111111,0)" xlink:href="#K"/><use transform="matrix(0.06172839506172839,0,0,0.06172839506172839,23.45679012345679,0)" xlink:href="#O"/><use transform="matrix(0.06172839506172839,0,0,0.06172839506172839,28.333333333333336,0)" xlink:href="#Q"/></g><g id="C"><use transform="matrix(0.06172839506172839,0,0,0.06172839506172839,0,0)" xlink:href="#ab"/><use transform="matrix(0.06172839506172839,0,0,0.06172839506172839,12.345679012345679,0)" xlink:href="#G"/></g><g id="D"><use transform="matrix(0.06172839506172839,0,0,0.06172839506172839,0,0)" xlink:href="#P"/><use transform="matrix(0.06172839506172839,0,0,0.06172839506172839,6.172839506172839,0)" xlink:href="#S"/><use transform="matrix(0.06172839506172839,0,0,0.06172839506172839,13.518518518518519,0)" xlink:href="#Q"/><use transform="matrix(0.06172839506172839,0,0,0.06172839506172839,25.864197530864196,0)" xlink:href="#J"/><use transform="matrix(0.06172839506172839,0,0,0.06172839506172839,38.20987654320987,0)" xlink:href="#Q"/><use transform="matrix(0.06172839506172839,0,0,0.06172839506172839,50.55555555555555,0)" xlink:href="#Y"/><use transform="matrix(0.06172839506172839,0,0,0.06172839506172839,55.432098765432094,0)" xlink:href="#K"/><use transform="matrix(0.06172839506172839,0,0,0.06172839506172839,67.77777777777777,0)" xlink:href="#M"/></g><g id="E"><use transform="matrix(0.06172839506172839,0,0,0.06172839506172839,0,0)" xlink:href="#O"/><use transform="matrix(0.06172839506172839,0,0,0.06172839506172839,4.876543209876543,0)" xlink:href="#I"/><use transform="matrix(0.06172839506172839,0,0,0.06172839506172839,9.753086419753085,0)" xlink:href="#M"/><use transform="matrix(0.06172839506172839,0,0,0.06172839506172839,20.864197530864196,0)" xlink:href="#P"/><use transform="matrix(0.06172839506172839,0,0,0.06172839506172839,27.037037037037035,0)" xlink:href="#K"/><use transform="matrix(0.06172839506172839,0,0,0.06172839506172839,39.382716049382715,0)" xlink:href="#M"/></g></defs></g></svg>